<?xml version="1.0" encoding="UTF-8" standalone="no"?>
<!-- Created with Inkscape (http://www.inkscape.org/) -->

<svg
   width="210mm"
   height="297mm"
   viewBox="0 0 210 297"
   version="1.1"
   id="svg1"
   xml:space="preserve"
   inkscape:version="1.4.2 (f4327f4, 2025-05-13)"
   sodipodi:docname="True Analema.svg"
   xmlns:inkscape="http://www.inkscape.org/namespaces/inkscape"
   xmlns:sodipodi="http://sodipodi.sourceforge.net/DTD/sodipodi-0.dtd"
   xmlns="http://www.w3.org/2000/svg"
   xmlns:svg="http://www.w3.org/2000/svg"><sodipodi:namedview
     id="namedview1"
     pagecolor="#ffffff"
     bordercolor="#000000"
     borderopacity="0.25"
     inkscape:showpageshadow="2"
     inkscape:pageopacity="0.0"
     inkscape:pagecheckerboard="0"
     inkscape:deskcolor="#d1d1d1"
     inkscape:document-units="mm"
     inkscape:zoom="0.5153125"
     inkscape:cx="504.54821"
     inkscape:cy="666.58581"
     inkscape:window-width="1540"
     inkscape:window-height="1211"
     inkscape:window-x="1852"
     inkscape:window-y="147"
     inkscape:window-maximized="0"
     inkscape:current-layer="layer1" /><defs
     id="defs1" /><g
     inkscape:label="Layer 1"
     inkscape:groupmode="layer"
     id="layer1"><path
       style="fill:#ffd42a"
       d="m 105.54058,281.48385 -0.21963,0.199 -0.32012,-0.19558 -0.32012,-0.19557 -0.74441,0.11139 -0.74441,0.11139 -0.10352,-0.18286 -0.10352,-0.18286 h -0.42173 -0.42172 l -0.36374,0.23445 -0.36374,0.23446 -0.0778,-0.23446 -0.0778,-0.23445 h -0.63857 -0.638563 l -0.20054,0.21893 -0.20054,0.21893 -0.10857,-0.30887 -0.10857,-0.30886 -0.92793,0.0862 -0.92794,0.0862 v -0.20966 -0.20966 l -0.94497,0.12125 -0.94496,0.12125 v -0.21534 -0.21533 l -0.85427,0.11046 -0.85428,0.11045 -0.10083,-0.17811 -0.10083,-0.17811 -0.37644,-0.0148 -0.37643,-0.0148 0.25771,-0.0927 0.25772,-0.0927 0.40385,-0.21564 0.40385,-0.21563 0.23166,0.34587 0.23166,0.34587 0.78194,-0.12801 0.78194,-0.12802 v 0.22489 0.22488 l 0.94496,-0.12124 0.94497,-0.12125 v 0.18921 0.1892 h 0.5912 0.5912 l 0.11196,-0.19776 0.11195,-0.19776 0.407573,0.29155 0.40758,0.29154 h 0.42125 0.42126 l 0.0778,-0.23446 0.0778,-0.23446 0.36374,0.23446 0.36374,0.23446 h 0.34829 0.34829 l 0.35175,-0.23446 0.35176,-0.23446 0.22324,0.32824 0.22324,0.32825 h 0.37991 0.37991 l 0.26586,-0.29025 0.26587,-0.29025 0.29378,0.29025 0.29378,0.29025 h 0.39706 0.39706 l 0.22324,-0.32825 0.22324,-0.32824 0.35176,0.23446 0.35175,0.23446 h 0.43186 0.43186 v -0.18757 -0.18757 h 0.34363 0.34362 v 0.18757 0.18757 h 0.45896 0.45895 l 0.31826,-0.31443 0.31826,-0.31444 0.20211,0.22065 0.20212,0.22065 h 0.47093 0.47093 l 0.1088,-0.19218 0.1088,-0.19218 0.8463,0.12256 0.84631,0.12256 v -0.21819 -0.21819 l 0.8662,0.12544 0.86619,0.12544 0.23902,-0.35344 0.23901,-0.35344 0.21774,0.23446 0.21774,0.23446 h 0.40056 0.40056 l 0.10172,-0.28937 0.10171,-0.28937 0.7587,0.1242 0.75871,0.12421 0.32604,-0.32213 0.32605,-0.32212 0.22559,0.15326 0.22559,0.15326 0.42308,-0.0598 0.42308,-0.0598 0.19637,-0.29318 0.19637,-0.29318 0.32552,0.15309 0.32551,0.15308 0.34363,-0.0473 0.34362,-0.0473 0.14326,-0.27433 0.14327,-0.27433 0.50801,0.12181 0.50801,0.12181 0.39188,-0.28031 0.39187,-0.28031 0.64358,0.0199 0.64358,0.0199 0.15393,-0.27199 0.15392,-0.27199 0.71174,-0.0119 0.71174,-0.0119 0.16805,-0.32782 0.16804,-0.32782 0.48984,0.11746 0.48984,0.11745 0.36043,-0.39349 0.36044,-0.39349 0.38096,0.0353 0.38095,0.0353 0.30067,-0.0292 0.30067,-0.0292 v -0.26128 -0.26128 l 0.23679,-0.0992 0.23678,-0.0992 0.18392,0.20079 0.18393,0.20079 0.43835,-0.31355 0.43835,-0.31356 v -0.19034 -0.19035 l 0.38658,0.0363 0.38657,0.0363 0.28064,-0.0292 0.28063,-0.0292 0.0921,-0.3846 0.0921,-0.38459 0.4004,0.0386 0.40039,0.0386 0.28063,-0.0292 0.28064,-0.0292 0.0941,-0.39287 0.0941,-0.39288 0.51599,0.12373 0.51599,0.12372 0.29708,-0.49498 0.29708,-0.49497 0.33415,0.0954 0.33414,0.0954 0.38768,-0.45667 0.38767,-0.45667 h 0.2885 0.28851 l -0.0279,-0.23446 -0.0279,-0.23446 0.0204,-0.32391 0.0204,-0.32392 0.44019,-0.31487 0.44018,-0.31487 0.58958,0.30694 0.58959,0.30693 -0.0192,-0.13706 -0.0192,-0.13707 0.0204,-0.24625 0.0203,-0.24625 0.30067,0.0334 0.30068,0.0334 0.21901,-0.0216 0.21902,-0.0216 0.16742,-0.48073 0.16742,-0.48073 0.37948,0.0587 0.37948,0.0587 0.21711,-0.46892 0.21711,-0.46891 0.32879,-0.006 0.3288,-0.006 0.27743,-0.25137 0.27744,-0.25137 v -0.25838 -0.25838 h 0.17182 0.17181 l 0.043,0.0317 0.0429,0.0317 0.38658,-0.22586 0.38658,-0.22587 v -0.35607 -0.35608 l 0.46568,-0.0593 0.46569,-0.0594 0.10045,-0.46892 0.10044,-0.46891 h 0.33588 0.33588 l 0.19623,-0.20084 0.19624,-0.20083 0.0624,-0.35364 0.0624,-0.35365 0.42236,-0.10885 0.42236,-0.10884 0.0922,-0.42171 0.0922,-0.4217 0.42953,-0.2395 0.42953,-0.23949 -0.0417,-0.41543 -0.0417,-0.41542 0.51422,-0.11228 0.51421,-0.11227 v -0.43524 -0.43523 l 0.46921,-0.24551 0.46921,-0.24551 0.003,-0.4681 0.003,-0.46811 0.38658,-0.0599 0.38658,-0.0599 0.0198,-0.22141 0.0198,-0.22142 -0.0296,-0.32197 -0.0296,-0.32198 0.43936,-0.12038 0.43936,-0.12039 0.0198,-0.21412 0.0198,-0.21413 -0.0304,-0.32698 -0.0304,-0.32699 0.45063,-0.22415 0.45064,-0.22416 -0.10063,-0.4377 -0.10063,-0.43771 0.30489,-0.12287 0.3049,-0.12288 0.12171,-0.19969 0.12171,-0.19969 -0.0933,-0.4059 -0.0933,-0.4059 0.35819,-0.1241 0.35818,-0.12411 0.0198,-0.22182 0.0198,-0.22182 -0.028,-0.31135 -0.028,-0.31135 0.36551,-0.27949 0.36551,-0.2795 -0.0335,-0.34699 -0.0335,-0.34699 0.0198,-0.23446 0.0198,-0.23446 h 0.27721 0.27722 l -0.0771,-0.57369 -0.0771,-0.57368 0.33752,-0.25809 0.33752,-0.25809 -0.0844,-0.48225 -0.0844,-0.48225 0.3174,-0.39953 0.31741,-0.39953 -0.10156,-0.44171 -0.10155,-0.44172 0.28721,-0.12032 0.28721,-0.12032 -0.11221,-0.72507 -0.11221,-0.72506 0.28402,-0.11899 0.28402,-0.11898 -0.11227,-0.72548 -0.11228,-0.72548 h 0.16688 0.16687 l 0.0861,-0.35932 0.0861,-0.35932 -0.15758,-0.17201 -0.15757,-0.17202 0.10992,-0.31272 0.10993,-0.31271 h 0.15342 0.15343 v -0.33762 -0.33763 l -0.21476,-0.2377 -0.21476,-0.23771 0.30067,-0.24251 0.30067,-0.24251 v -0.31989 -0.3199 l -0.1682,-0.34311 -0.16821,-0.3431 0.25411,-0.23023 0.25411,-0.23023 v -0.31466 -0.31465 l -0.18592,-0.20297 -0.18592,-0.20296 0.22497,-0.39326 0.22496,-0.39326 -0.18227,-0.52718 -0.18227,-0.52717 0.17576,-0.43002 0.17576,-0.43002 -0.19559,-0.34191 -0.1956,-0.34192 0.20211,-0.58454 0.2021,-0.58454 -0.22072,-0.38584 -0.22072,-0.38584 0.19116,-0.25146 0.19116,-0.25145 -0.48197,-0.25099 -0.48197,-0.25099 -0.0521,-0.68053 -0.0522,-0.68053 0.4132,-0.35483 0.41319,-0.35482 -0.24087,-0.24564 -0.24087,-0.24564 0.22344,-0.29391 0.22344,-0.29392 -0.0584,-0.37664 -0.0584,-0.37665 -0.25325,-0.27648 -0.25326,-0.27648 0.18286,-0.19962 0.18285,-0.19963 v -0.36974 -0.36975 l -0.28143,-0.33949 -0.28143,-0.33949 0.21128,-0.27792 0.21129,-0.27793 -0.27554,-0.60297 -0.27553,-0.60297 0.0996,-0.57977 0.0996,-0.57978 -0.35489,-0.44672 -0.35489,-0.44671 0.17881,-0.23521 0.17881,-0.23522 -0.10881,-0.47328 -0.10881,-0.47329 -0.26004,-0.10894 -0.26004,-0.10893 0.12698,-0.32666 0.12699,-0.32666 -0.0236,-0.4515 -0.0236,-0.45149 -0.35779,-0.27359 -0.3578,-0.27359 0.18629,-0.20337 0.18629,-0.20338 v -0.33762 -0.33762 l -0.32216,-0.3517 -0.32216,-0.35171 0.0188,-0.78236 0.0188,-0.78236 -0.25502,-0.172 -0.25501,-0.17201 -0.0109,-0.777 -0.0109,-0.77701 -0.28056,-0.1714 -0.28056,-0.17141 0.028,-0.76628 0.028,-0.76628 -0.3379,-0.26967 -0.33789,-0.26967 -0.0109,-0.76193 -0.0109,-0.76193 -0.35471,-0.30857 -0.35471,-0.30857 -0.0939,-0.82419 -0.0939,-0.8242 -0.19584,-0.13213 -0.19583,-0.13213 -0.0513,-0.78602 -0.0513,-0.78603 -0.31807,-0.2539 -0.31807,-0.25391 -0.0225,-0.70754 -0.0225,-0.70754 -0.38209,-0.33777 -0.38209,-0.33777 0.0447,-0.33464 0.0447,-0.33464 -0.14348,-0.46892 -0.14348,-0.46892 -0.32592,-0.2504 -0.32591,-0.2504 0.10101,-0.34746 0.10102,-0.34746 -0.22293,-0.43147 -0.22294,-0.43148 -0.29347,-0.24187 -0.29347,-0.24188 0.0983,-0.27958 0.0983,-0.27959 -0.21495,-0.5665 -0.21494,-0.5665 -0.32831,-0.19182 -0.32832,-0.19183 0.10302,-0.35433 0.10301,-0.35434 -0.26021,-0.54934 -0.26022,-0.54935 -0.26264,-0.11002 -0.26264,-0.11003 0.0349,-0.46049 0.0349,-0.4605 -0.23719,-0.48383 -0.23718,-0.48382 h -0.22869 -0.22868 v -0.67092 -0.67091 l -0.52506,-0.5732 -0.52505,-0.5732 0.0976,-0.27757 0.0976,-0.27757 -0.34914,-0.61673 -0.34914,-0.61672 -0.27207,-0.11398 -0.27207,-0.11397 0.0995,-0.28309 0.0995,-0.28308 -0.27893,-0.63856 -0.27893,-0.63855 -0.34087,-0.0973 -0.34088,-0.0973 0.095,-0.39679 0.0951,-0.39679 -0.28712,-0.55261 -0.28712,-0.5526 -0.31637,-0.11139 -0.31638,-0.11138 0.0887,-0.37024 0.0887,-0.37025 -0.34766,-0.64329 -0.34767,-0.64329 h -0.24075 -0.24075 v -0.47552 -0.47551 l -0.29768,-0.50921 -0.29769,-0.50921 -0.3152,-0.25392 -0.31519,-0.25392 0.0995,-0.28304 0.0995,-0.28304 -0.35967,-0.63533 -0.35968,-0.63534 h -0.24371 -0.2437 v -0.45372 -0.45372 l -0.29842,-0.56764 -0.29842,-0.56764 -0.31587,-0.0902 -0.31588,-0.0902 0.0524,-0.3421 0.0524,-0.34211 -0.23808,-0.62537 -0.23808,-0.62537 -0.41423,-0.17194 -0.41424,-0.17193 0.0906,-0.3281 0.0906,-0.32809 -0.42185,-0.75027 -0.42185,-0.75027 -8.8e-4,0.16364 -8.8e-4,0.16364 -0.26554,-0.24058 -0.26554,-0.24058 0.0909,-0.25872 0.0909,-0.25871 -0.18746,-0.32771 -0.18747,-0.3277 -0.54792,0.0698 -0.54793,0.0698 -0.32305,-0.65489 -0.32306,-0.65488 0.26954,-0.4491 0.26955,-0.4491 -0.22527,-0.4595 -0.22526,-0.45951 -0.0998,0.0469 -0.0998,0.0469 h -0.18411 -0.18411 l 0.0454,-0.42202 0.0454,-0.42203 -0.28398,-0.58575 -0.28397,-0.58575 -0.3505,-0.10007 -0.35051,-0.10006 v -0.41745 -0.41744 l -0.34556,-0.61041 -0.34557,-0.61041 -0.35708,-0.10195 -0.35709,-0.10194 0.0945,-0.3414 0.0945,-0.34141 -0.42185,-0.75026 -0.42185,-0.75027 -8.8e-4,0.16364 -8.8e-4,0.16364 -0.25772,-0.2335 -0.25771,-0.2335 v -0.37012 -0.37012 l -0.28753,-0.53138 -0.28753,-0.53139 -0.31382,-0.0896 -0.31381,-0.0896 v -0.39533 -0.39532 l -0.38657,-0.64414 -0.38658,-0.64413 -0.31362,-0.0896 -0.31362,-0.0896 0.0532,-0.34269 0.0532,-0.34269 -0.3858,-0.68147 -0.38579,-0.68147 -0.34239,-0.0977 -0.34239,-0.0977 0.0988,-0.28106 0.0988,-0.28106 -0.39875,-0.67181 -0.39876,-0.67182 -0.30067,-0.002 -0.30067,-0.002 v -0.5042 -0.5042 l -0.38327,-0.61065 -0.38327,-0.61064 -0.30398,-0.0868 -0.30397,-0.0868 v -0.41065 -0.41064 l -0.27512,-0.50845 -0.27513,-0.50846 -0.36917,-0.18383 -0.36917,-0.18384 0.0479,-0.24367 0.0479,-0.24368 -0.36389,-0.64277 -0.36388,-0.64278 -0.32827,-0.1918 -0.32827,-0.19179 v -0.35553 -0.35553 l -0.38658,-0.66155 -0.38657,-0.66155 -0.30067,-0.008 -0.30067,-0.008 v -0.39988 -0.39989 l -0.34557,-0.61041 -0.34557,-0.61041 -0.34168,-0.0976 -0.34168,-0.0975 v -0.42798 -0.42798 l -0.38327,-0.61064 -0.38327,-0.61064 -0.32629,-0.0931 -0.32629,-0.0932 0.10643,-0.30278 0.10642,-0.30278 -0.38478,-0.57298 -0.38478,-0.57299 -0.38506,-0.16176 -0.38505,-0.16177 0.0333,-0.43879 0.0333,-0.43879 -0.39011,-0.59811 -0.39011,-0.5981 h -0.24602 -0.24602 v -0.41042 -0.41042 l -0.38327,-0.61064 -0.38328,-0.61064 -0.30397,-0.0868 -0.30397,-0.0868 v -0.38197 -0.38198 l -0.34972,-0.64706 -0.34971,-0.64707 -0.33753,-0.0964 -0.33754,-0.0964 v -0.41064 -0.41063 l -0.35532,-0.54476 -0.35532,-0.54476 h -0.24602 -0.24602 l -0.0262,-0.23446 -0.0262,-0.23446 -0.022,-0.18757 -0.022,-0.18757 -0.31283,-0.57329 -0.31284,-0.5733 -0.36917,-0.17697 -0.36917,-0.17697 v -0.37513 -0.37514 l -0.33772,-0.60959 -0.33771,-0.60959 h -0.30658 -0.30658 v -0.47552 -0.47552 l -0.28774,-0.47942 -0.28775,-0.47942 -0.41032,-0.17032 -0.41033,-0.17031 0.0449,-0.32839 0.0449,-0.32839 -0.28991,-0.5963 -0.28992,-0.5963 -0.34551,-0.11972 -0.34551,-0.11971 v -0.3473 -0.34729 l -0.28788,-0.5476 -0.28788,-0.54761 -0.3546,-0.17097 -0.35459,-0.17097 -0.002,-0.37514 -0.002,-0.37513 -0.33048,-0.59623 -0.33048,-0.59623 -0.31381,-0.0896 -0.31381,-0.0896 v -0.41064 -0.41063 l -0.35533,-0.54476 -0.35532,-0.54476 h -0.24602 -0.24602 l -0.0143,-0.14068 -0.0143,-0.14067 -0.0417,-0.40522 -0.0417,-0.40522 -0.29153,-0.48573 -0.29153,-0.48572 h -0.25375 -0.25376 l -0.0203,-0.23446 -0.0203,-0.23446 0.0276,-0.16441 0.0276,-0.16441 -0.39383,-0.63147 -0.39382,-0.63146 -0.21477,-10e-4 -0.21476,-0.001 -0.0198,-0.23446 -0.0198,-0.23445 -0.0231,-0.18757 -0.0231,-0.18757 -0.33048,-0.59623 -0.330483,-0.59622 -0.32676,-0.0933 -0.32677,-0.0933 0.0516,-0.3421 0.0516,-0.34211 -0.13471,-0.23445 -0.13471,-0.23446 -0.46234,-0.003 -0.46234,-0.003 -0.18905,-0.1378 -0.18904,-0.1378 -0.20275,-0.42033 -0.20275,-0.42033 0.25039,-0.5286 0.25039,-0.52859 -0.11632,-0.17648 -0.11631,-0.17647 -0.34362,-0.21008 -0.34363,-0.21008 0.0538,-0.39952 0.0537,-0.399507 h -0.24767 -0.24767 l -0.23561,0.609597 -0.23561,0.60959 -0.0231,0.18756 -0.0231,0.18757 -0.0198,0.23446 -0.0198,0.23446 h -0.23687 -0.23688 l -0.23209,0.60959 -0.23209,0.60959 0.0524,0.3421 0.0524,0.34211 -0.31917,0.0911 -0.31918,0.0911 -0.24624,0.59839 -0.24624,0.5984 0.048,0.32952 0.048,0.32952 -0.27507,0.11523 -0.27507,0.11524 -0.25136,0.53065 -0.25137,0.53066 v 0.39034 0.39033 l -0.26407,0.11063 -0.26407,0.11062 -0.25136,0.53066 -0.25137,0.53066 v 0.39033 0.39034 l -0.26407,0.11062 -0.26407,0.11063 -0.25137,0.53066 -0.25136,0.53065 v 0.4656 0.46559 l -0.32514,0.11266 -0.32515,0.11266 -0.23324,0.60335 -0.23325,0.60336 -0.0231,0.18757 -0.0231,0.18756 -0.0198,0.23446 -0.0198,0.23446 -0.21476,0.001 -0.21476,10e-4 -0.30068,0.57672 -0.30067,0.57671 v 0.45372 0.45372 h -0.21864 -0.21865 l -0.33933,0.68788 -0.33933,0.68788 0.0515,0.3319 0.0515,0.3319 -0.35081,0.20497 -0.35081,0.20496 -0.26122,0.55148 -0.26123,0.55147 0.0221,0.14634 0.0221,0.14634 -0.0203,0.23446 -0.0204,0.23446 -0.21476,0.001 -0.21477,0.001 -0.30067,0.57672 -0.30067,0.57671 v 0.44108 0.44108 l -0.32775,0.11356 -0.32775,0.11356 -0.10117,0.2878 -0.10116,0.2878 0.1712,0.34921 0.17119,0.34922 v 0.45218 0.45217 l -0.3142,0.31042 -0.31419,0.31043 h -0.44058 -0.44057 l -0.10429,0.29669 -0.10428,0.29669 v 0.35979 0.35979 h -0.16553 -0.16562 l -0.43572,0.70003 -0.43572,0.70003 v 0.42537 0.42538 h -0.16012 -0.16011 l -0.39011,0.5981 -0.39011,0.5981 0.0334,0.44001 0.0334,0.44 -0.25281,0.10591 -0.25281,0.1059 -0.3471,0.61312 -0.3471,0.61313 v 0.39328 0.39329 l -0.34185,0.19973 -0.34184,0.19972 -0.26652,0.56265 -0.26652,0.56265 0.10024,0.17706 0.10024,0.17706 -0.36447,0.33324 -0.36446,0.33324 -0.24419,0.5065 -0.24419,0.50649 v 0.37785 0.37785 l -0.32122,0.18768 -0.32123,0.18768 -0.28908,0.66505 -0.28908,0.66505 0.0977,0.17265 0.0977,0.17266 -0.36628,0.28008 -0.36629,0.28008 -0.32759,0.58808 -0.32759,0.58808 0.0902,0.15936 0.0902,0.15937 -0.10485,0.29828 -0.10484,0.29827 -0.19638,0.001 -0.19639,0.001 -0.30067,0.57672 -0.30067,0.57672 v 0.43364 0.43365 l -0.24771,0.10377 -0.2477,0.10378 -0.29213,0.48673 -0.29214,0.48674 -0.0496,0.49335 -0.0496,0.49334 -0.26961,0.16472 -0.26962,0.16472 -0.25771,0.54407 -0.25772,0.54406 -0.005,0.33756 -0.005,0.33756 -0.51066,0.54707 -0.51066,0.54707 -0.0198,0.29698 -0.0198,0.29698 0.0327,0.3421 0.0327,0.34211 -0.33114,0.0945 -0.33114,0.0945 -0.28315,0.64823 -0.28316,0.64824 v 0.3487 0.3487 l -0.24995,0.10471 -0.24996,0.10472 -0.32754,0.71251 -0.32753,0.71252 0.0763,0.23436 0.0763,0.23436 -0.27933,0.11701 -0.27932,0.11702 -0.33631,0.71966 -0.3363,0.71966 v 0.38261 0.3826 h -0.2259 -0.22589 l -0.28954,0.66285 -0.28954,0.66285 v 0.35945 0.35945 l -0.23693,0.15 -0.23693,0.14999 -0.34485,0.6241 -0.34485,0.62411 0.0858,0.35834 0.0858,0.35835 -0.28453,0.11919 -0.28453,0.1192 -0.30572,0.68024 -0.30572,0.68024 0.0657,0.31559 0.0657,0.31559 -0.36221,0.21162 -0.36221,0.21163 -0.18729,0.5044 -0.18728,0.50441 0.0231,0.43975 0.0231,0.43975 -0.33224,0.0949 -0.33223,0.0949 -0.18262,0.5719 -0.18262,0.5719 v 0.42829 0.42829 l -0.34362,0.11906 -0.34363,0.11906 v 0.35143 0.35142 l -0.17181,0.11592 -0.17181,0.11593 v 0.44852 0.44853 l -0.24946,0.15241 -0.24946,0.15241 -0.24366,0.65407 -0.24366,0.65407 0.0845,0.25609 0.0845,0.25609 -0.4559,0.4004 -0.4559,0.40039 -0.1083,0.75027 -0.1083,0.75026 -0.29615,0.23009 -0.29615,0.23008 -0.13284,0.52019 -0.13285,0.52018 0.0363,0.31641 0.0363,0.3164 -0.33883,0.19797 -0.33882,0.19796 -0.19779,0.65426 -0.19779,0.65425 0.10193,0.18006 0.10193,0.18005 -0.32413,0.33942 -0.32413,0.33943 -0.19512,0.40969 -0.19511,0.4097 v 0.48124 0.48125 h -0.1674 -0.1674 l -0.26213,0.55339 -0.26213,0.55338 v 0.37612 0.37612 l -0.43873,0.7058 -0.43873,0.70579 0.0993,0.43206 0.0993,0.43205 -0.25363,0.10625 -0.25363,0.10625 -0.21495,0.68679 -0.21495,0.68679 0.0502,0.27162 0.0502,0.27162 -0.23812,0.1973 -0.23812,0.1973 -0.22331,0.59827 -0.2233,0.59827 0.12045,0.21278 0.12046,0.21277 -0.38988,0.45307 -0.38989,0.45306 0.28598,0.34498 0.28598,0.34498 v 0.48764 0.48764 l -0.26974,0.29447 -0.26973,0.29446 -0.41136,0.11272 -0.41136,0.11271 -0.12148,0.40338 -0.12149,0.40338 0.0322,0.5158 0.0322,0.51581 h -0.17405 -0.17404 l -0.23429,0.6096 -0.23428,0.60959 0.18435,0.25475 0.18435,0.25476 -0.28743,0.22945 -0.28743,0.22945 -0.17374,0.49889 -0.17375,0.49889 0.0949,0.27011 0.0949,0.27012 -0.38554,0.56928 -0.38553,0.56929 0.0228,0.66277 0.0228,0.66276 h -0.15293 -0.15293 l -0.13125,0.6096 -0.13125,0.60959 0.0449,0.34389 0.0449,0.3439 -0.29854,0.23831 -0.29854,0.23832 0.0121,0.87143 0.0121,0.87144 h -0.15137 -0.15138 l -0.15144,0.60959 -0.15143,0.60959 0.15245,0.21459 0.15246,0.21459 -0.30192,0.3296 -0.30192,0.3296 -0.005,0.78687 -0.005,0.78686 -0.23657,0.31117 -0.23658,0.31118 0.10833,0.73955 0.10833,0.73956 -0.30129,0.1841 -0.30128,0.1841 0.0298,0.85721 0.0298,0.85722 h -0.13989 -0.1399 l -0.0714,0.66787 -0.0714,0.66787 0.1379,0.093 0.1379,0.093 -0.26397,0.55728 -0.26398,0.55728 0.11192,0.65126 0.11191,0.65126 h -0.19093 -0.19093 l -0.0199,0.42203 -0.0199,0.42202 -0.0845,-0.37513 -0.0845,-0.37513 -0.17704,-0.23798 -0.17704,-0.23798 0.26546,-0.32472 0.26547,-0.32473 0.0424,-0.37513 0.0424,-0.37513 -0.129,-0.32343 -0.129,-0.32342 0.29164,-0.31839 0.29165,-0.31839 -0.10977,-0.7494 -0.10977,-0.7494 0.21658,-0.14613 0.21658,-0.14613 0.005,-0.86099 0.005,-0.86099 0.19717,-0.13382 0.19717,-0.13382 0.0431,-0.46892 0.0431,-0.46892 -0.13936,-0.35536 -0.13937,-0.35537 0.25582,-0.20733 0.25582,-0.20734 0.1069,-0.45235 0.1069,-0.45235 -0.1636,-0.33371 -0.16359,-0.33371 0.31508,-0.24556 0.31508,-0.24556 0.10415,-0.44363 0.10414,-0.44364 -0.20129,-0.35187 -0.20129,-0.35188 0.36303,-0.27759 0.36304,-0.2776 0.0814,-0.46466 0.0814,-0.46467 -0.18925,-0.21053 -0.18925,-0.21054 0.41001,-0.36571 0.41,-0.3657 v -0.7913 -0.7913 l 0.2553,-0.2038 0.25529,-0.20379 0.022,-0.84326 0.0219,-0.84326 0.30068,-0.32818 0.30067,-0.32818 0.0198,-0.31484 0.0198,-0.31485 -0.0335,-0.34721 -0.0335,-0.34721 0.35736,-0.36347 0.35737,-0.36347 0.0198,-0.32094 0.0198,-0.32093 -0.0309,-0.33015 -0.0309,-0.33015 0.35472,-0.49231 0.35472,-0.4923 v -0.23309 -0.23309 l -0.25772,-0.2335 -0.25772,-0.2335 v -0.60445 -0.60444 l 0.3142,-0.31043 0.3142,-0.31042 h 0.37305 0.37305 l 0.019,-0.23446 0.019,-0.23445 -0.0313,-0.42203 -0.0313,-0.42203 h 0.2532 0.25321 l 0.18678,-0.58493 0.18678,-0.58493 -0.10533,-0.45818 -0.10534,-0.45817 0.33149,-0.0946 0.33149,-0.0946 0.18438,-0.53327 0.18438,-0.53327 -0.0851,-0.48601 -0.0851,-0.48601 h 0.24593 0.24592 l 0.28532,-0.65317 0.28531,-0.65317 -0.1096,-0.31178 -0.10959,-0.31179 0.25757,-0.20734 0.25757,-0.20733 0.23129,-0.46892 0.23128,-0.46892 -0.0341,-0.51581 -0.0341,-0.51581 h 0.22594 0.22593 l 0.24082,-0.70337 0.24081,-0.70338 -0.0498,-0.27161 -0.0498,-0.27162 0.24666,-0.1973 0.24667,-0.1973 0.29491,-0.62307 0.29492,-0.62307 -0.17852,-0.23482 -0.17852,-0.23483 0.20209,-0.22062 0.20208,-0.22061 h 0.18884 0.18884 l 0.20944,-0.6323 0.20944,-0.6323 -0.11133,-0.31672 -0.11133,-0.31673 0.35859,-0.10237 0.35859,-0.10238 0.21322,-0.68359 0.21321,-0.6836 -0.043,-0.31641 -0.043,-0.3164 0.33451,-0.19545 0.33452,-0.19544 0.17686,-0.55387 0.17686,-0.55387 -0.0921,-0.38458 -0.0921,-0.38458 0.42534,-0.17655 0.42533,-0.17654 0.10934,-0.31106 0.10934,-0.31106 v -0.64114 -0.64114 h 0.17181 0.17181 l 0.1137,0.0128 0.11369,0.0128 0.25271,-0.62235 0.25271,-0.62235 -0.0222,-0.43975 -0.0222,-0.43975 0.30965,-0.0884 0.30964,-0.0884 0.23434,-0.59725 0.23434,-0.59725 -0.0378,-0.43711 -0.0378,-0.43711 0.34149,-0.0975 0.34149,-0.0975 0.21236,-0.5908 0.21237,-0.59081 0.0307,-0.28135 0.0307,-0.28135 0.0254,-0.23446 0.0254,-0.23445 h 0.21865 0.21865 l 0.31878,-0.64622 0.31877,-0.64622 -0.10237,-0.29124 -0.10237,-0.29125 0.39752,-0.28435 0.39753,-0.28435 0.19829,-0.47512 0.19829,-0.47511 v -0.46598 -0.46598 l 0.24741,-0.10364 0.24741,-0.10365 0.30082,-0.50006 0.30082,-0.50006 -0.034,-0.4936 -0.034,-0.49359 0.3211,-0.0917 0.3211,-0.0917 0.26634,-0.58284 0.26633,-0.58284 -0.0935,-0.3904 -0.0935,-0.39041 0.36797,-0.10505 0.36797,-0.10505 0.29612,-0.68103 0.29612,-0.68102 -0.049,-0.31641 -0.049,-0.31641 0.33452,-0.19544 0.33451,-0.19544 0.21371,-0.61356 0.2137,-0.61355 -0.0368,-0.3421 -0.0368,-0.34211 0.36346,-0.10376 0.36345,-0.10376 0.25084,-0.52955 0.25084,-0.52954 V 146.93579 146.44 l 0.31818,-0.0908 0.31819,-0.0908 0.27893,-0.63856 0.27893,-0.63855 -0.0895,-0.25462 -0.0895,-0.25461 0.26553,-0.24058 0.26554,-0.24059 0.005,0.16364 0.005,0.16364 0.40448,-0.71841 0.40448,-0.71842 -0.0824,-0.34403 -0.0824,-0.34404 0.35804,-0.20918 0.35803,-0.20919 0.26607,-0.5617 0.26607,-0.5617 -0.0269,-0.2299 -0.0269,-0.2299 0.0204,-0.23446 0.0204,-0.23446 h 0.24075 0.24074 l 0.34767,-0.64329 0.34767,-0.64329 -0.0922,-0.38498 -0.0922,-0.38499 0.42194,-0.17513 0.42194,-0.17513 0.21821,-0.57511 0.2182,-0.57511 -0.10208,-0.29043 -0.10209,-0.29042 0.39405,-0.19601 0.39405,-0.196 0.30016,-0.60846 0.30015,-0.60847 -0.0307,-0.17455 -0.0307,-0.17455 0.0203,-0.23446 0.0204,-0.23446 h 0.23796 0.23796 l 0.27748,-0.46232 0.27747,-0.46232 v -0.58686 -0.58686 l 0.31382,-0.0896 0.31381,-0.0896 0.28753,-0.53139 0.28753,-0.53138 v -0.48687 -0.48687 h 0.24074 0.24075 l 0.34767,-0.64329 0.34767,-0.64329 -0.0922,-0.38499 -0.0922,-0.38498 0.42533,-0.17654 0.42534,-0.17654 0.0991,-0.28201 0.0991,-0.282 -0.24751,-0.22425 -0.2475,-0.22425 v -0.50388 -0.50389 l 0.22599,-0.3374 0.226,-0.33741 0.55559,-0.0305 0.55558,-0.0305 0.14233,-0.2514 0.14232,-0.25141 -0.0875,-0.36545 -0.0875,-0.36545 0.3334,-0.0952 0.33341,-0.0952 0.33317,-0.6754 0.33318,-0.6754 -0.0555,-0.3576 -0.0555,-0.35761 0.31917,-0.0911 0.31917,-0.0911 0.24625,-0.5984 0.24624,-0.59839 -0.05,-0.34211 -0.05,-0.3421 0.32676,-0.0933 0.32676,-0.0933 0.3025,-0.55905 0.3025,-0.55905 -0.10562,-0.30047 -0.10562,-0.30047 0.60609,-0.60606 0.60608,-0.60606 v -0.57769 -0.5777 l 0.34185,-0.19972 0.34184,-0.19973 0.22916,-0.51025 0.22916,-0.51025 -0.0661,-0.3164 -0.0661,-0.3164 0.41355,-0.29582 0.41356,-0.29582 0.18673,-0.44741 0.18673,-0.44741 -0.09,-0.37593 -0.0901,-0.37593 0.36122,-0.12516 0.36121,-0.12516 0.24663,-0.52067 0.24664,-0.52067 -0.0924,-0.38579 -0.0924,-0.38579 0.32215,-0.11162 0.32216,-0.11163 0.28672,-0.52989 0.28673,-0.5299 -0.10044,-0.41926 -0.10043,-0.41926 0.35225,-0.10056 0.35225,-0.10057 0.22532,-0.59173 0.22531,-0.59173 -0.0524,-0.34211 -0.0524,-0.3421 0.34251,-0.0978 0.34251,-0.0978 0.19816,-0.52227 0.19815,-0.52227 -0.0552,-0.30306 -0.0552,-0.30306 0.4806,-0.42289 0.4806,-0.42288 0.0651,-0.78243 0.0651,-0.782427 -0.245,-0.102049 -0.24498,-0.102629 v -0.499549 -0.499548 l -0.61516,-0.633373 -0.61516,-0.633373 0.077,-0.232826 0.0769,-0.232826 -0.26476,-0.502444 -0.26475,-0.502443 -0.31381,-0.08959 -0.31381,-0.08959 v -0.377494 -0.377493 l -0.29842,-0.567645 -0.29842,-0.567644 -0.32524,-0.09285 -0.32524,-0.09285 0.10701,-0.304421 0.107,-0.304421 -0.24962,-0.526979 -0.24962,-0.526979 -0.36345,-0.103762 -0.36346,-0.103761 0.0524,-0.342105 0.0524,-0.342105 -0.22532,-0.591732 -0.22531,-0.591733 -0.34251,-0.09778 -0.3425,-0.09778 0.0419,-0.342104 0.0419,-0.342105 -0.22174,-0.499912 -0.22174,-0.499912 -0.33762,-0.09639 -0.33763,-0.09639 0.0705,-0.341536 0.0705,-0.341536 -0.23179,-0.515809 -0.23179,-0.515809 h -0.2533 -0.25331 l -0.0204,-0.234459 -0.0203,-0.234459 0.0296,-0.171115 0.0296,-0.171116 -0.19517,-0.5144 -0.19518,-0.514401 -0.34449,-0.09835 -0.3445,-0.09835 0.0705,-0.341536 0.0705,-0.341536 -0.23179,-0.515809 -0.23179,-0.515809 h -0.25331 -0.25331 l -0.0204,-0.234459 -0.0203,-0.234459 0.0296,-0.171116 0.0296,-0.171115 -0.19517,-0.514401 -0.19517,-0.5144 -0.35225,-0.100562 -0.35225,-0.100562 0.097,-0.405094 0.097,-0.405095 -0.18119,-0.434141 -0.1812,-0.434142 -0.31172,-0.08899 -0.31173,-0.08899 0.0159,-0.611214 0.0159,-0.611215 -0.45729,-0.363655 -0.45728,-0.363655 0.10334,-0.18254 0.10334,-0.18254 -0.20921,-0.55138 -0.2092,-0.55138 h -0.24917 -0.24917 l 0.0443,-0.422026 0.0443,-0.422025 -0.12959,-0.422225 -0.12959,-0.422225 -0.34531,-0.201753 -0.34531,-0.201752 0.0946,-0.269189 0.0946,-0.269188 -0.19478,-0.466694 -0.19478,-0.466695 h -0.24244 -0.24243 l 0.0313,-0.422026 0.0313,-0.422026 -0.019,-0.235699 -0.019,-0.235699 -0.42367,-0.402156 -0.42367,-0.402156 0.0962,-0.169965 0.0962,-0.169965 -0.10536,-0.458257 -0.10535,-0.458257 h -0.25444 -0.25445 v -0.767827 -0.767828 l -0.35165,-0.100391 -0.35165,-0.100391 0.0339,-0.491642 0.0339,-0.491642 -0.0259,-0.315602 -0.0259,-0.315603 -0.35401,-0.122661 -0.354,-0.122661 0.1064,-0.528871 0.1064,-0.528872 -0.36253,-0.368718 -0.36253,-0.368718 0.10846,-0.471766 0.10846,-0.471766 -0.36588,-0.279777 -0.36588,-0.279776 0.10814,-0.470374 0.10814,-0.470375 -0.36616,-0.372402 -0.36615,-0.372402 0.11626,-0.505674 0.11625,-0.505673 -0.36578,-0.2797 -0.36579,-0.2797 0.16864,-0.34399 0.16863,-0.34399 -0.32311,-0.448438 -0.32311,-0.448438 0.0935,-0.534013 0.0935,-0.534013 -0.29254,-0.178724 -0.29253,-0.178724 0.11007,-0.547128 0.11008,-0.547129 -0.28602,-0.119821 -0.28602,-0.11982 0.10384,-0.604317 0.10385,-0.604316 -0.25375,-0.229902 -0.25374,-0.229903 0.0865,-0.499449 0.0865,-0.49945 -0.69491,-0.844051 -0.69492,-0.844052 -2.3e-4,-0.286507 -2.4e-4,-0.286507 0.23576,-0.369977 0.23577,-0.369977 0.12622,-0.633024 0.12623,-0.633023 -0.23313,-0.158413 -0.23313,-0.158413 0.22981,-0.40462 0.22982,-0.404621 -0.25872,-0.282436 -0.25871,-0.282437 0.19869,-0.476065 0.19869,-0.476064 -0.21275,-0.07742 -0.21274,-0.07742 v -0.343873 -0.343873 l 0.21477,-0.08201 0.21476,-0.08201 -0.30882,-0.380244 -0.30882,-0.380244 0.28568,-0.311871 0.28567,-0.311871 -0.27401,-0.330548 -0.27402,-0.330547 0.29716,-0.324493 0.29716,-0.324493 -0.25772,-0.17506 -0.25772,-0.175061 0.22888,-0.402971 0.22887,-0.402971 -0.18592,-0.202966 -0.18592,-0.202967 v -0.33762 -0.337621 h 0.27876 0.27875 l -0.21207,-0.278962 -0.21207,-0.278961 0.13067,-0.330631 0.13068,-0.330631 -0.0357,-0.404111 -0.0357,-0.404111 0.18242,-0.123081 0.18242,-0.123082 -0.16867,-0.344055 -0.16866,-0.344055 0.24389,-0.220976 0.2439,-0.220976 -0.0949,-0.270026 -0.0949,-0.270025 0.194,-0.255188 0.19399,-0.255188 -0.0967,-0.275074 -0.0967,-0.275073 0.2478,-0.224514 0.2478,-0.224515 -0.0877,-0.365958 -0.0877,-0.365958 0.25823,-0.108177 0.25822,-0.108176 -0.0864,-0.360741 -0.0864,-0.360741 0.25822,-0.108176 0.25823,-0.108177 -0.0819,-0.341851 -0.0819,-0.341852 0.18678,-0.126022 0.18678,-0.126022 v -0.343996 -0.343997 l 0.25482,-0.106751 0.25482,-0.106751 -0.10084,-0.286869 -0.10083,-0.28687 0.27554,-0.115432 0.27555,-0.115432 v -0.360953 -0.360953 l 0.25673,-0.107551 0.25673,-0.107551 -0.0916,-0.161778 -0.0916,-0.161778 0.35029,-0.238821 0.35029,-0.23882 v -0.242118 -0.242119 l 0.25673,-0.107551 0.25673,-0.107551 -0.0714,-0.126196 -0.0714,-0.126196 0.67377,-0.731167 0.67377,-0.731167 v -0.174669 -0.174668 l 0.25772,0.107964 0.25772,0.107964 v -0.207063 -0.207064 l 0.43838,-0.443534 0.43838,-0.443534 h 0.16296 0.16296 V 21.56488 21.386113 l 0.64429,-0.326922 0.6443,-0.326922 0.13739,-0.244579 0.1374,-0.244579 h 0.33509 0.33508 v -0.439846 -0.439847 l 0.3142,-0.310421 0.3142,-0.310421 h 0.42459 0.42459 l 0.1989,0.217131 0.19889,0.217131 0.26281,-0.238116 0.26281,-0.238115 0.25991,0.108881 0.2599,0.108881 v -0.18168 -0.18168 h 0.41939 0.41939 l 0.11134,-0.196675 0.11135,-0.196675 0.22571,0.204503 0.22571,0.204504 0.0633,-0.207196 0.0633,-0.207197 0.51184,-0.08193 0.51183,-0.08193 1.06187,-0.0747 1.06187,-0.0747 0.19129,-0.129067 0.19129,-0.129066 0.21992,0.199251 0.21992,0.199252 0.18711,-0.204274 0.18712,-0.204275 0.21381,0.144265 0.21382,0.144264 0.96088,0.05279 0.96089,0.05279 0.60134,0.119119 0.60134,0.11912 0.26074,0.04212 0.26074,0.04212 0.25469,0.174006 0.2547,0.174006 0.30067,-0.054 0.30067,-0.054 v 0.202931 0.202931 l 0.42953,-0.117691 0.42953,-0.117691 v 0.207901 0.207901 h 0.33348 0.33349 l 0.10618,0.187567 0.10619,0.187567 h 0.333483 0.33349 v 0.187566 0.187567 h 0.23132 0.23132 l 0.54183,0.295089 0.54183,0.295088 v 0.173829 0.173829 h 0.34363 0.34362 v 0.187567 0.187567 h 0.34902 0.34901 l 0.0989,0.281351 0.0989,0.28135 h 0.23934 0.23934 v 0.19221 0.192209 l 0.42952,0.178282 0.42953,0.178282 v 0.285993 0.285993 l 0.13219,-0.04689 0.13219,-0.04689 0.46915,0.402129 0.46916,0.402129 v 0.207464 0.207464 h 0.2738 0.2738 l 0.0899,0.375134 0.0899,0.375133 0.19473,0.01394 0.19472,0.01394 0.42054,0.08433 0.42054,0.08433 0.32332,0.319437 0.32333,0.319437 -0.1101,0.801484 -0.11009,0.801484 h 0.26824 0.26825 v 0.381021 0.38102 l 0.25772,0.107965 0.25771,0.107964 v 0.3321 0.3321 l 0.26554,0.240584 0.26554,0.240584 -0.0829,0.235777 -0.0829,0.235777 0.24687,0.103419 0.24687,0.10342 v 0.358054 0.358054 l 0.26554,0.240585 0.26554,0.240584 -0.0835,0.237586 -0.0835,0.237586 0.25945,0.235069 0.25945,0.23507 -0.0789,0.329231 -0.0789,0.329232 0.25696,0.107645 0.25695,0.107644 -0.1029,0.447615 -0.10291,0.447614 0.26834,0.112415 0.26834,0.112415 -0.1095,0.376633 -0.10949,0.376633 0.26216,0.286203 0.26216,0.286203 -0.0978,0.278311 -0.0978,0.278312 0.20523,0.26996 0.20522,0.269961 -0.11168,0.384135 -0.11167,0.384135 h 0.20251 0.20251 l -0.11281,0.656484 -0.11282,0.656485 h 0.19325 0.19325 l -0.10962,0.544844 -0.10961,0.544845 0.19579,0.132102 0.19579,0.132103 -0.10979,0.477554 -0.10979,0.477555 0.22473,0.152744 0.22473,0.152744 -0.22463,0.395555 -0.22463,0.395555 0.19687,0.25897 0.19687,0.25897 -0.11116,0.552527 -0.11116,0.552527 0.18234,0.123023 0.18233,0.123023 -0.14688,0.316859 -0.14689,0.316859 0.0261,0.941909 0.0261,0.94191 0.12187,0.215262 0.12186,0.215263 -0.27636,0.301701 -0.27636,0.301701 0.21478,0.282516 0.21477,0.282515 -0.23242,0.474098 -0.23242,0.474099 0.19326,0.337839 0.19327,0.337839 -0.27621,0.301535 -0.27621,0.301535 0.24184,0.493306 0.24183,0.493307 -0.32489,0.259347 -0.32488,0.259347 0.19433,0.465626 0.19433,0.465625 -0.26869,0.293337 -0.2687,0.293336 0.11065,0.481314 0.11066,0.481315 -0.1984,0.260973 -0.19839,0.260973 0.11343,0.49341 0.11344,0.49341 -0.30139,0.36357 -0.30139,0.363569 0.21888,0.382609 0.21887,0.382609 -0.29063,0.350594 -0.29064,0.350594 0.0851,0.486078 0.0851,0.486079 -0.25453,0.277871 -0.25453,0.277871 0.088,0.502334 0.088,0.502333 -0.32496,0.451013 -0.32497,0.451012 0.10723,0.46643 0.10724,0.466429 -0.22945,0.154808 -0.22944,0.154808 0.0186,0.715593 0.0186,0.715592 -0.18177,0.122643 -0.18178,0.122643 0.35979,0.499331 0.35978,0.499331 -0.10242,0.316271 -0.10242,0.316271 -0.25824,0.328242 -0.25823,0.328242 h -0.33703 -0.33703 l 0.0873,0.364477 0.0873,0.364477 -0.33875,0.334677 -0.33875,0.334676 0.0699,0.520322 0.07,0.520321 -0.3139,0.310132 -0.31391,0.310131 v 0.653628 0.653627 l -0.28188,0.225021 -0.28189,0.225021 -0.0188,0.6534 -0.0188,0.653399 -0.31552,0.344156 -0.31551,0.344155 0.0794,0.45368 0.0794,0.45368 -0.33796,0.343732 -0.33796,0.343733 -0.056,0.657971 -0.056,0.657971 -0.37468,0.409038 -0.37468,0.409039 0.0814,0.464928 0.0814,0.464927 -0.35095,0.356941 -0.35095,0.356941 v 0.589262 0.589263 l -0.41267,0.450512 -0.41267,0.450512 0.0308,0.417695 0.0308,0.417696 -0.019,0.234459 -0.019,0.234458 h -0.25444 -0.25445 l -0.1248,0.51581 -0.12481,0.515809 0.0461,0.248572 0.0461,0.248573 -0.44003,0.480381 -0.44003,0.480381 v 0.630907 0.630907 h -0.21577 -0.21578 l -0.23028,0.56796 -0.23029,0.56796 0.0952,0.270958 0.0952,0.270959 -0.31177,0.239591 -0.31178,0.239592 -0.14348,0.468917 -0.14348,0.468918 0.0439,0.329521 0.0439,0.329522 -0.27508,0.115233 -0.27507,0.115234 -0.25014,0.52809 -0.25015,0.52809 0.0962,0.273771 0.0962,0.273771 -0.34708,0.265401 -0.347093,0.265401 -0.17507,0.502699 -0.17507,0.502699 0.0989,0.281398 0.0989,0.281398 -0.2819,0.118094 -0.2819,0.118094 -0.25015,0.52809 -0.25014,0.52809 0.098,0.278847 0.098,0.278847 -0.35518,0.207512 -0.35517,0.207512 -0.25828,0.545259 -0.25828,0.54526 0.10252,0.29165 0.10252,0.291651 -0.2819,0.118094 -0.2819,0.118095 -0.25136,0.530656 -0.25137,0.530657 v 0.495792 0.495792 l 0.34363,0.0981 0.34362,0.0981 0.0198,0.21258 0.0198,0.21259 0.0399,0.18756 0.0399,0.18757 0.0262,0.23446 0.0262,0.23446 h 0.57471 0.57471 l 0.30553,0.36856 0.30553,0.36856 -0.0932,0.4286 -0.0932,0.4286 -0.11902,0.41868 -0.11901,0.41868 0.45959,0.19076 0.45959,0.19076 -0.0488,0.32839 -0.0488,0.32839 0.325483,0.59623 0.32548,0.59623 0.32676,0.0933 0.32677,0.0933 -0.0509,0.3421 -0.0509,0.34211 0.31307,0.5733 0.31308,0.57329 0.36917,0.17697 0.36917,0.17697 -0.0514,0.4066 -0.0513,0.4066 0.6527,0.71359 0.6527,0.7136 -0.0447,0.15155 -0.0447,0.15155 0.26768,0.56509 0.26767,0.5651 0.43213,0.17936 0.43212,0.17935 -0.0488,0.3284 -0.0488,0.32839 0.33284,0.60983 0.33285,0.60984 0.30645,0.10618 0.30645,0.10618 v 0.35177 0.35178 l 0.36044,0.66692 0.36044,0.66693 0.13553,-0.0914 0.13552,-0.0914 0.21577,0.28382 0.21576,0.28382 -0.10354,0.11303 -0.10354,0.11303 0.25445,0.53715 0.25444,0.53716 0.42595,0.30469 0.42595,0.30469 6.5e-4,0.30667 6.4e-4,0.30667 0.34045,0.60959 0.34046,0.60959 h 0.25362 0.25362 l 0.18122,0.70338 0.18123,0.70337 0.21593,0.28135 0.21594,0.28135 0.33966,0.21411 0.33967,0.21411 -0.0412,0.39736 -0.0412,0.39737 0.68553,0.74839 0.68553,0.74839 v 0.28794 0.28795 l 0.28774,0.47943 0.28774,0.47942 0.41033,0.17031 0.41033,0.17031 -0.0511,0.32898 -0.0511,0.32898 0.3858,0.68147 0.38579,0.68147 0.36438,0.10402 0.36437,0.10403 -0.0958,0.40013 -0.0958,0.40014 0.6745,0.73634 0.6745,0.73635 v 0.26835 0.26834 l 0.38657,0.66155 0.38658,0.66155 0.30067,0.008 0.30067,0.008 v 0.39989 0.39988 l 0.35216,0.62205 0.35215,0.62205 0.33509,0.11611 0.3351,0.1161 v 0.39778 0.39778 l 0.38327,0.61065 0.38327,0.61064 0.32667,0.0933 0.32667,0.0933 -0.0917,0.38265 -0.0917,0.38265 0.71326,0.80072 0.71326,0.80073 0.0179,0.29319 0.018,0.29319 0.30705,0.51158 0.30704,0.51159 0.3193,0.18655 0.31929,0.18655 v 0.38105 0.38105 l 0.44992,0.64397 0.44992,0.64397 h 0.23733 0.23732 l 0.0204,0.23445 0.0203,0.23446 -0.0252,0.15676 -0.0253,0.15675 0.35707,0.63072 0.35706,0.63072 0.33509,0.11611 0.3351,0.11611 v 0.38725 0.38724 l 0.35763,0.63173 0.35764,0.63174 h 0.24043 0.24043 l 0.11125,0.5158 0.11125,0.51581 0.33557,0.6096 0.33556,0.60959 h 0.24371 0.2437 l 0.0204,0.23446 0.0204,0.23446 -0.0253,0.15675 -0.0253,0.15676 0.35707,0.63072 0.35706,0.63072 0.34348,0.11901 0.34348,0.11901 -0.0486,0.31329 -0.0486,0.31328 0.39787,0.70279 0.39786,0.70279 h 0.24371 0.2437 l 0.0143,0.14067 0.0143,0.14068 0.0432,0.37513 0.0432,0.37514 0.32904,0.58211 0.32904,0.58211 0.12886,0.0275 0.12886,0.0275 h 0.17181 0.17181 v 0.45372 0.45372 l 0.29842,0.56764 0.29842,0.56765 0.30292,0.0865 0.30293,0.0865 v 0.39532 0.39533 l 0.38657,0.64413 0.38658,0.64413 0.32299,0.0923 0.32298,0.0923 -0.10267,0.29209 -0.10267,0.29209 0.35055,0.64862 0.35055,0.64862 0.33115,0.11474 0.33114,0.11474 v 0.37482 0.37483 l 0.16957,0.34588 0.16956,0.34589 0.30936,-0.0883 0.30937,-0.0883 0.46604,0.4002 0.46603,0.4002 v 0.43234 0.43233 l -0.2541,0.23023 -0.25411,0.23023 0.16802,0.34274 0.16802,0.34273 0.3438,0.11913 0.34381,0.11913 v 0.35613 0.35613 l 0.28316,0.64823 0.28315,0.64824 0.33114,0.0945 0.33113,0.0945 -0.0429,0.3421 -0.0428,0.3421 0.31306,0.68877 0.31306,0.68876 0.31819,0.0908 0.31818,0.0908 v 0.38387 0.38387 l 0.1983,0.47511 0.19829,0.47512 0.4088,0.29242 0.40881,0.29242 -0.046,0.22602 -0.0461,0.22601 0.22948,0.60045 0.22948,0.60045 0.41763,0.29874 0.41763,0.29873 -0.10793,0.19065 -0.10793,0.19065 0.20574,0.54223 0.20573,0.54224 0.42563,0.30446 0.42563,0.30445 -0.0982,0.27927 -0.0982,0.27927 0.25828,0.54526 0.25828,0.54526 0.33952,0.19837 0.33953,0.19837 -0.0325,0.42827 -0.0325,0.42828 0.39011,0.5981 0.39012,0.5981 h 0.17091 0.17091 l -0.0306,0.32824 -0.0306,0.32825 0.0198,0.22793 0.0198,0.22793 0.52874,0.65742 0.52874,0.65742 -0.1012,0.17876 -0.10119,0.17876 0.35353,0.65413 0.35352,0.65413 0.26763,0.11212 0.26763,0.11211 -0.10252,0.29165 -0.10252,0.29165 0.28209,0.59772 0.28209,0.59771 0.29538,0.22777 0.29539,0.22777 -0.078,0.44514 -0.0779,0.44513 0.54707,0.59725 0.54708,0.59724 -0.0941,0.26766 -0.0941,0.26766 0.26049,0.57005 0.2605,0.57006 0.27189,0.1661 0.27188,0.16611 -0.0948,0.39599 -0.0949,0.39599 0.50465,0.76052 0.50464,0.76052 -0.0263,0.22708 -0.0263,0.22707 0.0204,0.22007 0.0204,0.22006 0.43872,0.56921 0.43872,0.5692 -0.0429,0.24235 -0.0429,0.24235 0.14459,0.46819 0.1446,0.4682 0.26944,0.21509 0.26944,0.21509 0.0225,0.70754 0.0225,0.70753 0.38209,0.33777 0.38209,0.33777 -0.0391,0.33465 -0.0391,0.33464 0.13184,0.51581 0.13184,0.51581 h 0.21675 0.21675 l 0.0879,0.85166 0.0879,0.85166 0.27803,0.3354 0.27804,0.3354 v 0.6813 0.6813 l 0.3657,0.37194 0.36569,0.37194 -0.10072,0.28657 -0.10073,0.28656 0.18137,0.56799 0.18137,0.56799 h 0.1673 0.1673 l -0.0313,0.42202 -0.0313,0.42203 0.019,0.31484 0.019,0.31485 0.30067,0.32822 0.30068,0.32823 0.005,0.82066 0.005,0.82066 0.24473,0.16511 0.24472,0.16512 0.0178,0.77598 0.0178,0.77599 0.2394,0.16152 0.23939,0.16152 -0.0397,0.73506 -0.0397,0.73505 0.26649,0.24145 0.26649,0.24145 -0.10185,0.59271 -0.10186,0.59271 0.34001,0.45839 0.34001,0.4584 -0.13961,0.28478 -0.1396,0.28477 0.09,0.51382 0.09,0.51381 h 0.16688 0.16689 l -0.10868,0.70337 -0.10867,0.70338 0.24455,0.36471 0.24456,0.36472 -0.0829,0.67468 -0.0829,0.67469 0.25812,0.23387 0.25813,0.23387 -0.18552,0.53658 -0.18553,0.53657 0.27118,0.45183 0.27119,0.45183 -0.1627,0.31737 -0.16269,0.31737 h 0.23963 0.23963 l 0.28434,0.34301 0.28435,0.34301 v 0.59885 0.59884 l -0.42953,0.21366 -0.42953,0.21365 v 0.11995 0.11994 l 0.20617,0.22508 0.20618,0.22508 -0.20618,0.22508 -0.20617,0.22508 v 0.39389 0.3939 l 0.2027,0.22129 0.20271,0.22129 -0.23174,0.4727 -0.23174,0.47271 0.23174,0.47271 0.23174,0.47271 -0.20271,0.22129 -0.2027,0.22129 v 0.39389 0.39389 l 0.19889,0.21713 0.1989,0.21713 -0.215,0.28281 -0.215,0.28282 0.11711,0.75675 0.11712,0.75676 h -0.20643 -0.20642 l 0.11594,0.84405 0.11594,0.84405 h -0.20184 -0.20185 l 0.11594,0.84405 0.11594,0.84405 h -0.16395 -0.16396 l -0.10367,0.29494 -0.10367,0.29494 0.16758,0.34185 0.16759,0.34185 -0.25787,0.23363 -0.25786,0.23363 0.0396,0.64176 0.0396,0.64176 -0.2326,0.15694 -0.2326,0.15694 0.10728,0.58559 0.10728,0.58559 -0.34266,0.37409 -0.34266,0.37408 0.10675,0.46431 0.10674,0.46431 -0.28653,0.12004 -0.28654,0.12004 0.0288,0.4913 0.0288,0.49131 -0.0182,0.23445 -0.0182,0.23446 h -0.25772 -0.25772 l -0.0204,0.32825 -0.0204,0.32824 0.0357,0.27161 0.0357,0.27162 -0.29454,0.23512 -0.29455,0.23513 v 0.52364 0.52364 l -0.32214,0.24633 -0.32215,0.24633 v 0.45169 0.45168 l -0.34362,0.20076 -0.34363,0.20077 v 0.53453 0.53453 l -0.41491,0.29679 -0.41491,0.29679 0.094,0.39235 0.094,0.39234 -0.37508,0.10708 -0.37507,0.10708 -0.1032,0.56332 -0.10321,0.56333 -0.32632,0.0932 -0.32633,0.0932 -0.1032,0.56332 -0.1032,0.56333 -0.32633,0.0932 -0.32633,0.0932 -0.10131,0.553 -0.10131,0.55299 -0.38359,0.15922 -0.3836,0.15921 -0.10051,0.43571 -0.1005,0.4357 -0.38814,0.18757 -0.38813,0.18757 -0.0978,0.46207 -0.0978,0.46208 -0.417,0.10746 -0.41699,0.10747 -0.0984,0.45524 -0.0984,0.45523 -0.42326,0.10856 -0.42327,0.10855 -0.22414,0.50788 -0.22414,0.50788 h -0.31321 -0.31321 l -0.21389,0.28135 -0.21388,0.28135 h 0.12798 0.12798 l -0.21389,0.28135 -0.21388,0.28135 h -0.32684 -0.32684 l -0.16331,0.46892 -0.1633,0.46891 -0.30493,0.006 -0.30492,0.006 -0.26837,0.22849 -0.26836,0.22849 -0.10345,0.30157 -0.10344,0.30158 -0.50787,0.11089 -0.50788,0.11088 -0.0922,0.3847 -0.0921,0.3847 h -0.44165 -0.44165 l -0.28144,0.46892 -0.28144,0.46892 h -0.23796 -0.23796 v 0.46161 0.46161 l -0.37602,0.38244 -0.37602,0.38244 h -0.23661 -0.23662 l -0.34641,-0.20239 -0.34641,-0.2024 -0.21879,0.32665 -0.21879,0.32666 -0.2923,-0.12245 -0.2923,-0.12246 -0.41012,0.48311 -0.41012,0.4831 -0.3291,-0.11403 -0.3291,-0.11403 -0.52107,0.58183 -0.52107,0.58184 -0.11489,-0.20296 -0.1149,-0.20295 -0.37615,0.21871 -0.37615,0.21871 -0.18073,0.26747 -0.18073,0.26747 -0.2488,-0.0535 -0.2488,-0.0535 -0.3707,0.1377 -0.37071,0.1377 -0.098,0.27881 -0.098,0.27882 -0.39778,-0.10899 -0.39779,-0.10899 -0.44919,0.38573 -0.44919,0.38574 h -0.47481 -0.47481 l -0.32654,0.32261 -0.32653,0.32261 -0.60507,0.0229 -0.60507,0.0229 -0.14508,0.25627 -0.14508,0.25627 -0.60924,-0.0448 -0.60924,-0.0448 -0.29913,0.38139 -0.29913,0.38139 -0.53626,-0.10983 -0.53627,-0.10983 -0.24845,0.27123 -0.24845,0.27124 h -0.74596 -0.74596 l -0.1632,0.31837 -0.16321,0.31838 -0.50801,-0.12181 -0.50801,-0.12181 -0.4129,0.29535 -0.41289,0.29534 -0.52308,-0.11421 -0.52308,-0.11421 -0.38859,0.27457 -0.38858,0.27458 -0.66833,-0.0876 -0.66833,-0.0876 -0.154,0.30041 -0.15399,0.30042 -0.74428,-0.11137 -0.74428,-0.11137 -0.12131,0.21428 -0.12131,0.21429 -0.8243,-0.11937 -0.82429,-0.11938 -0.12315,0.21754 -0.12316,0.21755 -0.75163,-0.12305 -0.75162,-0.12305 -0.28733,0.31367 -0.28733,0.31368 -0.18285,-0.19963 -0.18286,-0.19962 h -0.56698 -0.56698 v 0.19403 0.19402 l -0.87674,-0.12697 -0.87674,-0.12697 -0.14889,0.26119 -0.14889,0.26118 -0.34653,-0.23446 -0.34654,-0.23445 h -0.42172 -0.42172 l -0.10083,0.17811 -0.10083,0.17811 -0.85122,-0.11006 -0.85122,-0.11006 z m 49.95305,-74.79918 h 0.0859 v -0.0938 -0.0938 h -0.0859 -0.0859 v 0.0938 0.0938 z M 96.462697,99.021238 h 0.1733 l 0.20927,-0.422025 0.20927,-0.422026 -0.0341,-0.515809 -0.0341,-0.515809 h 0.25603 0.25604 l 0.27098,-0.572076 0.27098,-0.572075 -0.11016,-0.378922 -0.11016,-0.378921 0.34496,-0.09848 0.34496,-0.09848 0.20243,-0.53352 0.20242,-0.53352 -0.10301,-0.181961 -0.10301,-0.181962 0.10485,-0.298277 0.10484,-0.298277 h 0.23329 0.23329 l 0.20927,-0.422025 0.20927,-0.422026 -0.0332,-0.502545 -0.0332,-0.502544 0.328353,-0.11377 0.32835,-0.113769 0.13029,-0.509088 0.1303,-0.509088 -0.0363,-0.316406 -0.0363,-0.316406 0.34095,-0.199204 0.34095,-0.199204 0.12959,-0.422224 0.12959,-0.422225 -0.0443,-0.422026 -0.0443,-0.422026 h 0.20812 0.20812 l 0.22824,-0.328242 0.22824,-0.328242 0.005,-0.600272 0.005,-0.600273 0.23263,-0.149995 0.23264,-0.149996 0.19628,-0.408438 0.19627,-0.408437 -0.10543,-0.299944 -0.10543,-0.299943 0.4616,-0.467019 0.46159,-0.467019 -0.0309,-0.418919 -0.0309,-0.418919 0.019,-0.234459 0.019,-0.234458 h 0.24614 0.24614 l 0.12691,-0.422026 0.12691,-0.422026 -0.0322,-0.515809 -0.0322,-0.515809 h 0.2647 0.2647 l 0.16274,-0.467289 0.16274,-0.467288 -0.109,-0.310103 -0.109,-0.310103 0.25757,-0.207335 0.25757,-0.207335 0.19925,-0.408438 0.19926,-0.408438 -0.1132,-0.322062 -0.11321,-0.322062 0.25516,-0.207335 0.25515,-0.207335 0.18772,-0.37029 0.18773,-0.370291 -0.15005,-0.306086 -0.15006,-0.306087 0.43401,-0.411971 0.43401,-0.411972 -0.10806,-0.537135 -0.10807,-0.537135 0.24313,-0.156403 0.24312,-0.156402 0.18885,-0.393291 0.18885,-0.393291 -0.20672,-0.229616 -0.20672,-0.229615 0.4114,-0.366939 0.4114,-0.366938 0.0181,-0.658387 0.0181,-0.658388 0.24914,-0.167919 0.24914,-0.167919 -0.0186,-0.715592 -0.0186,-0.715593 0.19897,-0.141085 0.19897,-0.141086 -0.18905,-0.140675 -0.18904,-0.140675 -0.20358,-0.422026 -0.20358,-0.422025 0.20358,-0.422026 0.20358,-0.422026 0.18904,-0.137803 0.18905,-0.137803 0.40761,-0.0029 0.40761,-0.0029 -0.20548,-0.270294 -0.20548,-0.270293 0.38326,-0.565915 0.38325,-0.565916 -0.22403,-0.294691 -0.22403,-0.294692 0.37056,-0.430609 0.37056,-0.43061 -0.10416,-0.568517 -0.10415,-0.568517 0.29303,-0.122758 0.29303,-0.122757 -0.10801,-0.628528 -0.10801,-0.628527 0.26437,-0.239519 0.26436,-0.239519 -0.10835,-0.630508 -0.10835,-0.630509 h 0.17833 0.17834 l 0.0644,-0.328242 0.0644,-0.328242 -0.18067,-0.339666 -0.18067,-0.339666 0.30067,-0.243713 0.30067,-0.243713 v -0.269998 -0.27005 l -0.18286,-0.199625 -0.18286,-0.199625 0.28612,-0.312351 0.28611,-0.31235 -0.11065,-0.481314 -0.11066,-0.481315 0.1984,-0.260973 0.19839,-0.260973 -0.11249,-0.489295 -0.11249,-0.489294 0.20447,-0.268964 0.20447,-0.268964 -0.1907,-0.456921 -0.1907,-0.456921 0.27454,-0.299711 0.27454,-0.299711 -0.2209,-0.450604 -0.2209,-0.450605 0.20963,-0.275755 0.20963,-0.275754 -0.18339,-0.374098 -0.1834,-0.374098 0.2807,-0.306434 0.28069,-0.306434 -0.19513,-0.213023 -0.19513,-0.213022 V 45.52714 45.18952 h 0.17182 0.17181 V 44.988555 44.78759 l -0.26587,-0.290246 -0.26586,-0.290246 0.29496,-0.355823 0.29497,-0.355824 -0.32977,-0.266944 -0.32977,-0.266944 0.21622,-0.386557 0.21622,-0.386558 -0.21622,-0.380857 -0.21622,-0.380857 0.22746,-0.154587 0.22746,-0.154587 -0.30058,-0.328134 -0.30057,-0.328134 0.20759,-0.362876 0.20758,-0.362876 -0.26926,-0.293954 -0.26926,-0.293953 0.1948,-0.25625 0.19481,-0.256249 -0.25949,-0.28328 -0.25948,-0.28328 0.0952,-0.397632 0.0952,-0.397633 -0.2394,-0.162645 -0.2394,-0.162645 0.19724,-0.347683 0.19725,-0.347684 -0.33005,-0.225021 -0.33005,-0.22502 0.17261,-0.352104 0.17261,-0.352105 -0.27279,-0.11428 -0.2728,-0.114281 0.10291,-0.447614 0.10291,-0.447614 -0.26835,-0.112415 -0.26834,-0.112415 0.1096,-0.376982 0.1096,-0.376982 -0.28234,-0.118281 -0.28235,-0.118282 0.10196,-0.443495 0.10196,-0.443496 h -0.28102 -0.28102 l 0.0796,-0.454561 0.0796,-0.45456 -0.33998,-0.09706 -0.33997,-0.09706 0.0896,-0.374102 0.0896,-0.374101 -0.25822,-0.108177 -0.25823,-0.108176 0.0893,-0.372855 0.0893,-0.372854 h -0.24702 -0.24703 l -0.10663,-0.328242 -0.10663,-0.328243 -0.24843,-0.316423 -0.24843,-0.316423 0.11287,-0.199386 0.11288,-0.199386 h -0.61148 -0.61148 l -0.35799,-0.390811 -0.35798,-0.39081 0.0761,-0.719603 0.0761,-0.719602 -0.3195,-0.09121 -0.31949,-0.09121 v -0.30998 -0.30998 l -0.1662,0.112132 -0.16619,0.112131 -0.21876,-0.382412 -0.21876,-0.382412 h -0.21639 -0.21639 v -0.281354 -0.28135 h -0.26311 -0.26311 l -0.0989,-0.281351 -0.0989,-0.28135 h -0.24473 -0.24472 l -0.0989,-0.281351 -0.0989,-0.28135 h -0.24472 -0.24473 l -0.0989,-0.28135 -0.0989,-0.281351 h -0.32524 -0.32525 v -0.187567 -0.187567 h -0.32524 -0.32524 l -0.10307,-0.293239 -0.10308,-0.293238 -0.15917,0.107395 -0.15918,0.107396 -0.26236,-0.286424 -0.26237,-0.286423 -0.13806,0.03313 -0.138073,0.03313 -0.34362,-0.140569 -0.34362,-0.14057 -0.34363,-0.153551 -0.34362,-0.15355 -0.34362,-0.139122 -0.34363,-0.139122 -0.25771,-0.07616 -0.25772,-0.07616 -0.42953,-0.09487 -0.42953,-0.09487 -0.26074,-0.04398 -0.26074,-0.04398 -0.21174,-0.142865 -0.21175,-0.142866 -0.17181,0.115923 -0.17181,0.115923 -0.21104,-0.142392 -0.21104,-0.142391 -0.69097,-0.03875 -0.69097,-0.03875 -0.0429,-0.03313 -0.0429,-0.03313 h -0.94497 -0.94496 l -0.0429,0.03313 -0.0429,0.03313 -0.69097,0.03875 -0.69097,0.03875 -0.21105,0.142391 -0.21104,0.142392 -0.17181,-0.115923 -0.17181,-0.115923 -0.21175,0.142866 -0.21174,0.142865 -0.34664,0.0558 -0.34665,0.0558 -0.34362,0.06982 -0.34362,0.06982 -0.0859,0.05251 -0.0859,0.05251 -0.17182,0.04542 -0.17181,0.04543 -0.39976,0.139212 -0.39975,0.139211 -0.15097,0.433469 -0.15096,0.433468 -0.414,0.296144 -0.41401,0.296143 -0.43874,-0.182106 -0.43874,-0.182105 -0.44217,0.224014 -0.44217,0.224014 -0.001,0.140675 -10e-4,0.140675 h -0.32524 -0.32524 l -0.0989,0.281351 -0.0989,0.28135 -0.22016,0.0079 -0.22016,0.0079 -0.42147,0.554758 -0.42147,0.554758 h -0.22282 -0.22283 v 0.146141 0.146141 l -1.07382,1.244637 -1.07382,1.244637 -0.0558,0.250433 -0.0558,0.250433 -0.15893,0.06252 -0.15893,0.06252 v 0.271607 0.271607 l -0.25771,0.107964 -0.25772,0.107964 v 0.232466 0.232465 l -0.2703,0.591518 -0.2703,0.591519 h -0.17761 -0.17761 l 0.0984,0.279954 0.0984,0.279955 -0.22585,0.230316 -0.22584,0.230316 0.0794,0.331501 0.0794,0.331502 -0.25823,0.108176 -0.25822,0.108177 0.0864,0.360741 0.0864,0.360741 -0.25174,0.10546 -0.25174,0.105459 0.0805,0.459521 0.0805,0.45952 h -0.20342 -0.20342 l 0.11168,0.384135 0.11168,0.384135 -0.2008,0.264133 -0.2008,0.264133 0.10228,0.180662 0.10228,0.180661 -0.27636,0.301702 -0.27636,0.301701 0.22534,0.296418 0.22534,0.296419 -0.28181,0.224958 -0.2818,0.224957 0.14744,0.260448 0.14745,0.260448 -0.15921,0.324761 -0.15921,0.324761 0.10451,0.297326 0.10452,0.297327 -0.20296,0.266972 -0.20296,0.266972 0.1842,0.375741 0.1842,0.37574 -0.14133,0.09536 -0.14134,0.09536 0.0164,1.463452 0.0164,1.463452 0.13031,0.226829 0.1303,0.226829 -0.22058,0.388486 -0.22059,0.388487 0.23802,0.161712 0.23802,0.161711 -0.11656,0.506991 -0.11656,0.506991 0.21183,0.27864 0.21183,0.27864 -0.19674,0.343908 -0.19673,0.343908 0.25002,0.226529 0.25003,0.226528 v 0.156075 0.156075 l 0.42952,0.468917 0.42953,0.468918 v 0.37259 0.37259 l -0.16714,0.112772 -0.16714,0.112773 -0.18769,0.760948 -0.18769,0.760948 0.25453,0.309643 0.25454,0.309642 -0.0853,0.480325 -0.0853,0.480325 0.26424,0.239411 0.26424,0.23941 -0.0996,0.543453 -0.0996,0.543453 0.28271,0.118434 0.28271,0.118435 -0.10873,0.632741 -0.10873,0.632741 0.29112,0.121957 0.29112,0.121956 -0.10612,0.617553 -0.10613,0.617553 0.2995,0.182978 0.2995,0.182977 -0.0402,0.652053 -0.0402,0.652053 0.24509,0.102673 0.24508,0.102673 -0.0179,0.687696 -0.0179,0.687696 0.3067,0.187376 0.3067,0.187376 -0.10165,0.442147 -0.10165,0.442147 0.36124,0.367412 0.36125,0.367412 -0.10525,0.362004 -0.10524,0.362004 0.34663,0.481083 0.34663,0.481082 v 0.48806 0.488061 l 0.34363,0.321199 0.34362,0.3212 v 0.605479 0.605479 l 0.29541,0.180479 0.29541,0.180479 -0.0398,0.569695 -0.0398,0.569695 0.38363,0.390185 0.38364,0.390184 0.0186,0.322606 0.0186,0.322605 0.0294,0.315603 0.0294,0.315602 0.35933,0.124506 0.35933,0.124505 -0.0928,0.387376 -0.0928,0.387377 0.19105,0.391701 0.19106,0.391701 0.2559,0.206004 0.2559,0.206004 -0.1201,0.212145 -0.1201,0.212146 0.20783,0.425902 0.20782,0.425902 0.21051,0.187567 0.21051,0.187567 0.11641,0.724179 0.11641,0.724179 0.33226,0.09486 0.33226,0.09486 v 0.549351 0.54935 l 0.4342,0.474012 0.43419,0.474012 -0.0384,0.220838 -0.0384,0.220839 0.13123,0.422225 0.13123,0.422224 0.33198,0.193967 0.33199,0.193968 0.006,0.50921 0.005,0.509209 0.22824,0.328243 0.22824,0.328242 h 0.19583 0.19582 l 0.0204,0.234458 0.0204,0.234459 -0.0296,0.171116 -0.0296,0.171116 0.19518,0.5144 0.19517,0.5144 0.34251,0.09778 0.3425,0.09778 -0.0459,0.342105 -0.0459,0.342105 0.12554,0.405246 0.12553,0.405246 0.40821,0.291999 0.40821,0.291999 -0.091,0.379733 -0.091,0.379734 0.53511,0.545702 0.53511,0.545703 v 0.291055 0.291054 l 0.19788,0.474138 0.19789,0.474138 0.32732,0.113414 0.32732,0.113414 -0.0653,0.312217 -0.0653,0.312217 0.22916,0.510248 0.22916,0.510249 0.34184,0.199727 0.34185,0.199726 v 0.35971 0.359709 l 0.19275,0.461845 0.19276,0.461846 0.32268,0.09212 0.32268,0.09212 v 0.363876 0.363877 l 0.26069,0.570491 0.26069,0.570492 0.36297,0.103621 0.36296,0.10362 -0.10878,0.309464 -0.10877,0.309463 0.29544,0.546018 0.29545,0.546019 0.30364,0.105209 0.30364,0.105209 -0.0304,0.410359 -0.0304,0.410359 0.31065,0.515809 0.31065,0.515809 h 0.23795 0.23796 l 0.0204,0.234459 0.0204,0.234459 -0.0279,0.234458 -0.0279,0.234459 z m -4.22164,181.564812 h -0.21481 l -0.1374,-0.263 -0.1374,-0.263 -0.42953,-0.0595 -0.42952,-0.0595 -0.2256,0.15327 -0.22559,0.15326 -0.32841,-0.32446 -0.32841,-0.32447 -0.67157,0.11724 -0.67158,0.11724 -0.20336,-0.26752 -0.20337,-0.26751 -0.33213,0.36258 -0.33213,0.36258 h -0.50316 -0.50316 l -0.26999,-0.29474 -0.26999,-0.29475 v -0.38207 -0.38207 l -0.43673,0.11966 -0.43672,0.11966 -0.27394,-0.29906 -0.27394,-0.29907 -0.5658,0.0532 -0.5658,0.0532 -0.3339,-0.32988 -0.3339,-0.32988 -0.60179,0.0442 -0.60178,0.0442 -0.30725,-0.33542 -0.30724,-0.33542 -0.48505,0.1059 -0.48504,0.10591 -0.33861,-0.39679 -0.33861,-0.39678 -0.57821,-0.0201 -0.57821,-0.0201 -0.3004,-0.32824 -0.30041,-0.32824 h -0.52717 -0.52718 l -0.21376,-0.31914 -0.21376,-0.31914 -0.64166,0.0198 -0.64167,0.0199 -0.0856,-0.3572 -0.0856,-0.3572 -0.19473,-0.0294 -0.19472,-0.0294 -0.44651,-0.0361 -0.44651,-0.0361 -0.3696,-0.40349 -0.3696,-0.40348 h -0.51543 -0.51544 v -0.25948 -0.25947 l -0.38657,-0.13601 -0.38658,-0.13601 -0.22818,0.0319 -0.22818,0.0319 -0.42446,-0.5 -0.42446,-0.49999 -0.33308,0.0951 -0.33309,0.0951 -0.3203,-0.48003 -0.3203,-0.48002 -0.41209,-0.0489 -0.4121,-0.0489 -0.12885,-0.0156 -0.12886,-0.0156 v -0.27475 -0.27475 l -0.33233,-0.19417 -0.33233,-0.19417 h -0.35492 -0.35492 v -0.27475 -0.27475 l -0.33233,-0.19416 -0.33232,-0.19417 -0.31197,-0.001 -0.31197,-10e-4 -0.30276,-0.58071 -0.30277,-0.5807 -0.22825,0.0956 -0.22825,0.0956 -0.15623,-0.12332 -0.15623,-0.12333 -0.19019,-0.37513 -0.19018,-0.37513 -0.46077,-0.0938 -0.46077,-0.0938 -0.20948,-0.46082 -0.20948,-0.46081 -0.39117,-0.10189 -0.39117,-0.10188 -0.21017,-0.46082 -0.21017,-0.46081 -0.42815,-0.10958 -0.42816,-0.10957 -0.0513,-0.38441 -0.0513,-0.38441 -0.55003,-0.26862 -0.55003,-0.26862 0.0375,-0.21224 0.0375,-0.21223 -0.27055,-0.24513 -0.27055,-0.24512 -0.36825,-0.2053 -0.36826,-0.2053 0.0452,-0.29281 0.0452,-0.29281 -0.21703,-0.19664 -0.21703,-0.19664 -0.12886,-0.016 -0.12886,-0.0159 h -0.17181 -0.17181 v -0.38386 -0.38386 l -0.50159,-0.31427 -0.50159,-0.31427 -0.0955,-0.52105 -0.0955,-0.52106 h -0.32954 -0.32953 l -0.10485,-0.29828 -0.10484,-0.29827 0.0885,-0.1563 0.0885,-0.1563 -0.51746,-0.40225 -0.51746,-0.40225 v -0.35804 -0.35803 l -0.44222,-0.31633 -0.44223,-0.31633 0.0864,-0.36083 0.0864,-0.36083 -0.50908,-0.31189 -0.50908,-0.31189 0.0805,-0.34855 0.0805,-0.34856 -0.41831,-0.42322 -0.41831,-0.42323 v -0.47273 -0.47272 l -0.41492,-0.2968 -0.41491,-0.29679 0.086,-0.359 0.086,-0.359 -0.37024,-0.37656 -0.37025,-0.37657 0.0323,-0.25529 0.0323,-0.25529 -0.0204,-0.30637 -0.0204,-0.30636 -0.36631,-0.10458 -0.36632,-0.10458 0.0834,-0.34837 0.0834,-0.34837 -0.36143,-0.0293 -0.36142,-0.0294 -0.30067,-0.40441 -0.30067,-0.40442 v -0.31262 -0.31262 l 0.25956,-0.40455 0.25956,-0.40456 -0.18372,-0.12395 -0.18371,-0.12395 0.10777,-0.53565 0.10776,-0.53565 -0.3405,-0.31828 -0.3405,-0.31828 0.093,-0.62543 0.093,-0.62543 -0.29432,-0.1233 -0.29433,-0.12329 0.10385,-0.60432 0.10385,-0.60432 -0.26436,-0.23952 -0.26436,-0.23952 0.11351,-0.66053 0.1135,-0.66053 -0.32066,-0.25598 -0.32067,-0.25598 0.21825,-0.38151 0.21824,-0.38152 -0.35699,-0.6306 -0.357,-0.6306 0.17742,-0.1197 0.17742,-0.11971 v -0.37746 -0.37746 l -0.24352,-0.26585 -0.24352,-0.26585 0.19203,-0.55541 0.19203,-0.5554 -0.32244,-0.38897 -0.32244,-0.38896 0.20212,-0.22065 0.20211,-0.22065 v -0.39389 -0.39389 l -0.21046,-0.22976 -0.21046,-0.22976 0.21046,-0.36791 0.21046,-0.36791 v -0.37767 -0.37768 h -0.17181 -0.17181 v -0.36407 -0.36406 l 0.17181,-0.11592 0.17181,-0.11593 v -0.45784 -0.45785 h -0.17181 -0.17181 v -0.36407 -0.36406 l 0.17181,-0.11592 0.17181,-0.11593 v -0.45784 -0.45785 h -0.17181 -0.17181 v -0.37514 -0.37513 h 0.17181 0.17181 v -0.47146 -0.47147 l -0.20197,-0.35306 -0.20197,-0.35306 0.28788,-0.31427 0.28788,-0.31428 v -0.32422 -0.32422 l -0.20271,-0.2213 -0.2027,-0.22129 0.19586,-0.42581 0.19585,-0.42582 0.0339,-0.28135 0.0339,-0.28135 -0.13222,-0.33063 -0.13223,-0.33063 0.21383,-0.28127 0.21383,-0.28128 0.23492,0.21285 0.23492,0.21284 v 0.19673 0.19672 l -0.29213,0.35241 -0.29214,0.35241 0.20255,0.58582 0.20255,0.58582 -0.15137,0.20194 -0.15136,0.20194 -0.0432,0.37514 -0.0432,0.37513 0.13512,0.34085 0.13513,0.34085 -0.19463,0.21247 -0.19462,0.21247 v 0.48768 0.48767 l 0.19889,0.21713 0.19889,0.21713 -0.17904,0.24241 -0.17903,0.24241 0.0254,2.34459 0.0254,2.34459 0.12941,0.22149 0.12941,0.2215 -0.17462,0.11782 -0.17461,0.11781 v 0.55163 0.55163 h 0.18691 0.18691 l -0.11792,0.76199 -0.11792,0.76198 0.28582,0.3448 0.28583,0.34479 -0.18301,0.12348 -0.183,0.12347 v 0.53156 0.53157 l 0.25667,0.10753 0.25668,0.10752 -0.19514,0.46756 -0.19514,0.46756 0.27972,0.46606 0.27973,0.46606 -0.1085,0.59223 -0.10849,0.59222 0.23104,0.15589 0.23104,0.15589 -0.04,0.74048 -0.04,0.74049 0.26769,0.11214 0.26768,0.11214 -0.11049,0.4806 -0.11049,0.48059 0.28643,0.34552 0.28642,0.34552 -0.10798,0.4697 -0.10799,0.46969 0.37943,0.38591 0.37943,0.38591 -0.0953,0.27117 -0.0953,0.27117 0.50468,0.11019 0.50467,0.11019 0.20568,0.49283 0.20569,0.49282 -0.2833,0.53888 -0.28329,0.53888 0.17658,0.11914 0.17659,0.11914 -0.0865,0.36121 -0.0865,0.3612 0.41196,0.48528 0.41196,0.48527 -0.0938,0.16565 -0.0938,0.16565 0.10857,0.37345 0.10858,0.37346 h 0.24614 0.24613 l 0.0204,0.23446 0.0204,0.23446 -0.0263,0.1601 -0.0263,0.1601 0.0975,0.33545 0.0975,0.33546 0.36063,0.10296 0.36063,0.10295 -0.0974,0.40652 -0.0974,0.40653 0.41831,0.42322 0.4183,0.42323 v 0.40454 0.40454 l 0.441,0.21935 0.44099,0.21935 -0.0736,0.30725 -0.0736,0.30724 0.2183,0.32592 0.2183,0.32593 0.10155,-0.0125 0.10155,-0.0125 h 0.17182 0.17181 l 0.003,0.42202 0.003,0.42203 0.12623,0.20125 0.12622,0.20124 0.28735,0.11553 0.28734,0.11552 0.0563,0.4288 0.0563,0.4288 0.42953,0.23264 0.42953,0.23264 0.0933,0.42704 0.0933,0.42704 0.42211,0.23028 0.42211,0.23029 8.7e-4,0.31407 8.8e-4,0.31408 0.29979,0.16052 0.2998,0.16051 0.30067,0.17012 0.30067,0.17011 -0.049,0.22476 -0.049,0.22477 0.19888,0.26161 0.19887,0.2616 h 0.32259 0.32259 v 0.33762 0.33762 l 0.20617,0.22508 0.20618,0.22508 h 0.29988 0.29989 l 0.22414,0.50788 0.22414,0.50788 0.39254,0.10171 0.39255,0.10172 0.2131,0.46892 0.21309,0.46891 0.39153,0.0613 0.39154,0.0613 0.1583,0.45455 0.1583,0.45454 0.21902,0.0286 0.21902,0.0286 0.23954,0.0193 0.23955,0.0193 0.18998,0.37418 0.18999,0.37417 0.17181,0.13781 0.17181,0.1378 0.38658,0.003 0.38657,0.003 v 0.18757 0.18757 l 0.0231,0.14067 0.0231,0.14068 0.30657,0.23442 0.30657,0.23442 0.26929,-0.11281 0.26929,-0.11282 0.16436,0.47194 0.16436,0.47193 0.35192,0.12194 0.35193,0.12195 0.15838,-0.10686 0.15837,-0.10686 0.33308,0.49918 0.33308,0.49918 0.4121,0.0489 0.41209,0.0489 0.12886,0.0156 0.12886,0.0156 v 0.27475 0.27475 l 0.31584,0.18453 0.31585,0.18454 0.36931,-0.10543 0.36932,-0.10544 0.11841,0.34953 0.11842,0.34952 0.18434,0.1378 0.18434,0.1378 0.42953,0.006 0.42953,0.006 0.40232,0.46308 0.40232,0.46308 0.3144,-0.1837 0.31441,-0.18369 0.33297,0.49902 0.33298,0.49903 0.62547,-0.0257 0.62546,-0.0257 v 0.263 0.263 l 0.38658,0.14237 0.38658,0.14236 0.29143,-0.046 0.29144,-0.046 0.36405,0.39743 0.36405,0.39744 0.4923,-0.11804 0.49229,-0.11804 0.2007,0.40939 0.20069,0.40938 0.68998,-0.10103 0.68998,-0.10103 0.0825,0.34428 0.0825,0.34428 0.39965,0.1095 0.39964,0.1095 0.29622,-0.12409 0.29621,-0.12409 0.18992,0.27928 0.18992,0.27927 0.42059,0.11849 0.42059,0.11848 0.20888,-0.18925 0.20887,-0.18925 0.3155,0.35896 0.3155,0.35895 0.25772,0.0942 0.25772,0.0942 0.28874,-0.16185 0.28873,-0.16185 0.27877,0.30433 0.27876,0.30432 0.40252,-0.41282 0.40252,-0.41283 0.48806,0.0612 0.48805,0.0612 0.34595,0.59581 0.34594,0.59582 0.38498,-0.0999 0.38498,-0.0999 0.11308,0.32171 0.11308,0.3217 0.81383,-0.11785 0.81383,-0.11786 0.10895,0.30995 0.10895,0.30995 0.75332,-0.11272 0.75333,-0.11272 0.18416,0.24225 0.18416,0.24225 -0.20208,0.22062 -0.20209,0.22061 z"
       id="path1" /></g></svg>
